<svg fill="#000000" height="200px" width="200px" version="1.1" id="Layer_1" xmlns="http://www.w3.org/2000/svg" xmlns:xlink="http://www.w3.org/1999/xlink" viewBox="0 0 420 420" xml:space="preserve"><g id="SVGRepo_bgCarrier" stroke-width="0"></g><g id="SVGRepo_tracerCarrier" stroke-linecap="round" stroke-linejoin="round"></g><g id="SVGRepo_iconCarrier"> <path d="M210,0C94.019,0,0,94.019,0,210s94.019,210,210,210s210-94.019,210-210S325.981,0,210,0z M210,400 c-23.9,0-46.8-4.8-67.4-13.7c-4.2-1.8-6.3-6.6-4.5-10.8c1.8-4.2,6.6-6.3,10.8-4.5c18.5,7.9,39.1,12.3,61.1,12.3 c22.2,0,43-4.4,61.5-12.5c4.2-1.8,9-0.2,10.8,4.1c1.8,4.2,0.2,9-4.1,10.8C256.8,395.2,233.9,400,210,400z M261.5,301.1 c-0.1,0-0.2,0-0.3,0c-4.4,0-8.2-3.4-8.5-7.8c-1.2-22.3-19.3-39.4-41.5-39.4h-2.4c-22.2,0-40.3,17.1-41.5,39.4 c-0.3,4.4-4,7.8-8.5,7.8c-0.1,0-0.2,0-0.3,0c-4.7,0-8.5-3.8-8.5-8.5c0-0.1,0-0.2,0-0.3c1.7-29.4,26.4-52.1,55.8-52.1h2.4 c29.4,0,54.1,22.7,55.8,52.1c0,0.1,0,0.2,0,0.3C270,297.3,266.2,301.1,261.5,301.1z M257.4,196.3c-2.3,3.7-6.5,5.8-10.8,5.8 c-1.1,0-2.3-0.2-3.4-0.5l-20.8-6.9c-2.7-0.9-4.3-3.6-4.3-6.5V174c0-3.4,2.2-6.5,5.5-7.5l23-7.2c3.9-1.2,8.1,0.6,9.9,4.3 c1.8,3.7,0.6,8.1-3,10.2l-14.9,6.7l15,5C256.9,189.9,258.8,193.4,257.4,196.3z M301.3,257c-3.1,3-7.5,4.1-11.6,2.9l-22.1-6.1 c-3.1-0.9-5-3.6-5-6.8v-12.9c0-2.9,1.7-5.6,4.4-6.9l22.4-10.7c3.8-1.8,8.2,0,10.4,3.6c2.2,3.6,1,8.2-2.5,10.4l-15.6,7.4l15.5,4.3 c3.9,1.1,6.6,4.5,6.6,8.6C308.8,251.1,305.8,255.1,301.3,257z M181.8,166.5l23,7.2c3.3,1,5.5,4.1,5.5,7.5v14.3 c0,2.9-1.7,5.6-4.3,6.5l-20.8,6.9c-1.1,0.4-2.3,0.5-3.4,0.5c-4.4,0-8.5-2.2-10.8-5.8c-1.4-2.9-0.5-6.4,2-8.1l15-5l-14.9-6.7 c-3.6-1.9-4.8-6.5-3-10.2C173.7,167.1,177.9,165.3,181.8,166.5z M130.4,243.2l22.4,10.7c2.7,1.3,4.4,4,4.4,6.9v12.9 c0,3.2-2,6-5,6.8l-22.1,6.1c-4.1,1.2-8.5,0.1-11.6-2.9c-4.5-2.1-6.5-7.3-5.5-12.1l15.5-4.3l-15.6-7.4c-3.5-2.2-4.7-6.8-2.5-10.4 C118.2,243.2,122.6,241.4,130.4,243.2z M210,40c21.8,0,42.5,4.3,61.4,12.3l-35.3,44.1c-2.3,2.9-5.6,4.6-9.1,4.6h-34 c-3.5,0-6.8-1.8-9.1-4.6l-35.3-44.1C167.5,44.3,188.2,40,210,40z"></g></svg> 