<svg fill="#000000" width="800px" height="800px" viewBox="0 0 24 24" role="img" xmlns="http://www.w3.org/2000/svg" aria-labelledby="chatIconTitle" stroke="#000000" stroke-width="2" stroke-linecap="round" stroke-linejoin="round"><g id="SVGRepo_bgCarrier" stroke-width="0"></g><g id="SVGRepo_tracerCarrier" stroke-linecap="round" stroke-linejoin="round"></g><g id="SVGRepo_iconCarrier"> <title id="chatIconTitle">Chat</title> <path d="M14 12C14 12.5523 13.5523 13 13 13H11C10.4477 13 10 12.5523 10 12C10 11.4477 10.4477 11 11 11H13C13.5523 11 14 11.4477 14 12Z"></path> <path d="M7 12C7 12.5523 6.55228 13 6 13H5C4.44772 13 4 12.5523 4 12C4 11.4477 4.44772 11 5 11H6C6.55228 11 7 11.4477 7 12Z"></path> <path d="M21 12C21 12.5523 20.5523 13 20 13H18C17.4477 13 17 12.5523 17 12C17 11.4477 17.4477 11 18 11H20C20.5523 11 21 11.4477 21 12Z"></path> <path d="M12,22 C17.5228,22 22,17.5228 22,12 C22,6.47715 17.5228,2 12,2 C6.47715,2 2,6.47715 2,12 C2,15.9069 4.3496,19.2334 7.5,20.8496 L7.5,22 L12,22 Z"></path> </g></svg> 