<svg fill="#000000" width="800px" height="800px" viewBox="0 0 24 24" id="dna" data-name="Line Color" xmlns="http://www.w3.org/2000/svg" class="icon line-color"><g id="SVGRepo_bgCarrier" stroke-width="0"></g><g id="SVGRepo_tracerCarrier" stroke-linecap="round" stroke-linejoin="round"></g><g id="SVGRepo_iconCarrier"><path id="primary" d="M15.44,15.15A4.42,4.42,0,0,1,12,17a4.42,4.42,0,0,1-3.44-1.85" style="fill: none; stroke: #000000; stroke-linecap: round; stroke-linejoin: round; stroke-width: 2;"></path><path id="primary-2" data-name="primary" d="M15.44,8.85A4.42,4.42,0,0,0,12,7,4.42,4.42,0,0,0,8.56,8.85" style="fill: none; stroke: #000000; stroke-linecap: round; stroke-linejoin: round; stroke-width: 2;"></path><line id="primary-3" data-name="primary" x1="14" y1="12" x2="10" y2="12" style="fill: none; stroke: #000000; stroke-linecap: round; stroke-linejoin: round; stroke-width: 2;"></line><path id="primary-4" data-name="primary" d="M17,21a4.42,4.42,0,0,1-3.44-1.85L8.56,8.85A4.42,4.42,0,0,1,12,7a4.42,4.42,0,0,1,3.44,1.85l5,10.3A4.49,4.49,0,0,1,17,21Z" style="fill: none; stroke: #000000; stroke-linecap: round; stroke-linejoin: round; stroke-width: 2;"></path><path id="primary-5" data-name="primary" d="M7,3A4.42,4.42,0,0,1,10.44,4.85l5,10.3A4.42,4.42,0,0,1,12,17a4.42,4.42,0,0,1-3.44-1.85l-5-10.3A4.49,4.49,0,0,1,7,3Z" style="fill: none; stroke: #000000; stroke-linecap: round; stroke-linejoin: round; stroke-width: 2;"></path></g></svg> 